<svg width="128" height="128" fill="none" xmlns="http://www.w3.org/2000/svg"><circle cx="64" cy="64" r="64" fill="url(#a)"/><path d="m50.952 63.168.512-5.824h-.32l-3.008 6.016L31.432 88H24.84V43.2h8.768v24.384l-.64 6.016h.384l3.136-6.208L53.192 43.2h6.528V88h-8.768V63.168ZM106.761 96h-6.208l-.96-8h-28.8l-.96 8h-6.208V80.192h4.736c.299-.47.79-1.515 1.472-3.136.683-1.621 1.365-3.904 2.048-6.848.683-2.987 1.259-6.699 1.728-11.136.47-4.48.683-9.77.64-15.872h26.816v36.992h5.696V96ZM92.297 80.192V51.008h-9.92c-.256 7.595-.875 13.824-1.856 18.688-.939 4.821-1.899 8.32-2.88 10.496h14.656Z" fill="#fff"/><defs><linearGradient id="a" x1="0" y1="0" x2="128" y2="128" gradientUnits="userSpaceOnUse"><stop stop-color="#5D5FEF"/><stop offset="1" stop-color="#EF5DA8"/></linearGradient></defs></svg>